<svg id="logosandtypes_com" data-name="logosandtypes com" xmlns="http://www.w3.org/2000/svg" viewBox="0 0 150 150"><defs><style>.cls-1{fill:none;}.cls-2{fill:#2015ff;fill-rule:evenodd;}</style></defs><path class="cls-1" d="M0,0H150V150H0Z"/><path id="mark" class="cls-2" d="M127.54,14.92,93,33h0V90.11a23.83,23.83,0,0,1-.76,7.29,32.5,32.5,0,0,1-1.92,6.52c-.39.39-.39,1.15-.77,1.54-1.15,0-9.59-2.69-13.43-5.37a40,40,0,0,1-4.6-3.84,41,41,0,0,1-3.84-4.6,24.93,24.93,0,0,1-3.07-5.37,29,29,0,0,1-1.91-6.14A32.49,32.49,0,0,1,62.32,74V19.14l-7.67-4.6L16.29,37.17V89.73a43.63,43.63,0,0,0,43.35,43.73,42.36,42.36,0,0,0,21.86-5.75l32.23-18.42a39.67,39.67,0,0,0,21.48-34.91V19.52l-7.67-4.6ZM85,115.05a35.11,35.11,0,0,1-10,7.29c-2.3.77-5,1.92-7.29,2.68a41.53,41.53,0,0,1-6.9.77,61.72,61.72,0,0,1-8.44-.77,32.5,32.5,0,0,1-6.52-1.91,24.77,24.77,0,0,1-6.14-3.46,37.31,37.31,0,0,1-9.59-9.59c-1.15-1.92-2.3-3.83-3.46-6.14a42.25,42.25,0,0,1-1.91-6.52A27.28,27.28,0,0,1,24,89.73v-48l30.69-18V74h0c0,19.18,14.19,34.91,32.23,38.75-.77.76-1.16,1.53-1.92,2.3Zm42.2-34.53a34.15,34.15,0,0,1-1.92,5.76,29.07,29.07,0,0,1-3.84,6.52c-2.3,2.68-4.6,4.6-10.36,8a49.2,49.2,0,0,1-11.89,4.22c1.92-4.6,1.92-9.59,1.92-15l-.38-52.56,26.85-14.19v51a33.33,33.33,0,0,1-.38,6.14Z"/></svg>